<!--?xml version="1.0" encoding="UTF-8"?--><svg id="Layer_1" xmlns="http://www.w3.org/2000/svg" viewBox="0 0 1600 1600"><defs><style>.cls-1,.cls-2,.cls-3,.cls-4,.cls-5,.cls-6,.cls-7{fill:none;}.cls-8{fill:#028b34;}.cls-9{fill:#020202;}.cls-10{fill:#fff;}.cls-11{fill:#ffc044;}.cls-12{fill:#fe3456;}.cls-13{fill:#efe4b5;}.cls-14{fill:#ff7c51;}.cls-15,.cls-16{fill:#4683ec;}.cls-2,.cls-3{stroke-miterlimit:10;}.cls-2,.cls-3,.cls-16,.cls-4,.cls-5,.cls-6,.cls-7{stroke-width:1.70px;}.cls-2,.cls-16,.cls-5{stroke:#020202;}.cls-3{stroke:#fe3456;}.cls-16,.cls-4,.cls-5,.cls-6,.cls-7{stroke-linecap:round;stroke-linejoin:round;}.cls-4{stroke:#028b34;}.cls-6{stroke:#ffc044;}.cls-7{stroke:#fff;}</style></defs><rect class="cls-9" x="411.14" y="401.92" width="716.01" height="442.43"></rect><rect class="cls-10" x="426.91" y="418.8" width="59.5" height="40.35"></rect><rect class="cls-10" x="426.91" y="471.42" width="59.5" height="40.35"></rect><rect class="cls-10" x="426.91" y="524.04" width="59.5" height="40.35"></rect><rect class="cls-10" x="426.91" y="576.65" width="59.5" height="40.35"></rect><rect class="cls-10" x="426.91" y="629.27" width="59.5" height="40.35"></rect><rect class="cls-10" x="426.91" y="681.89" width="59.5" height="40.35"></rect><rect class="cls-10" x="426.91" y="734.5" width="59.5" height="40.35"></rect><rect class="cls-10" x="426.91" y="787.12" width="59.5" height="40.35"></rect><rect class="cls-10" x="1051.87" y="418.8" width="59.5" height="40.35"></rect><rect class="cls-10" x="1051.87" y="471.42" width="59.5" height="40.35"></rect><rect class="cls-10" x="1051.87" y="524.04" width="59.5" height="40.35"></rect><rect class="cls-10" x="1051.87" y="576.65" width="59.5" height="40.35"></rect><rect class="cls-10" x="1051.87" y="629.27" width="59.5" height="40.35"></rect><rect class="cls-10" x="1051.87" y="681.89" width="59.5" height="40.35"></rect><rect class="cls-10" x="1051.87" y="734.5" width="59.5" height="40.35"></rect><rect class="cls-10" x="1051.87" y="787.12" width="59.5" height="40.35"></rect><rect class="cls-13" x="505.88" y="401.92" width="526.52" height="442.43"></rect><line class="cls-2" x1="505.88" y1="623.14" x2="1032.4" y2="623.14"></line><line class="cls-2" x1="769.14" y1="401.92" x2="769.14" y2="844.35"></line><polygon class="cls-12" points="904.87 401.92 769.14 625.97 769.14 401.92 904.87 401.92"></polygon><circle class="cls-3" cx="769.14" cy="625.97" r="101.24"></circle><circle class="cls-3" cx="769.14" cy="625.97" r="131.59"></circle><path class="cls-9" d="m788.87,629.42h11.28v15.92h-11.28v21.53h-19.75v-21.53h-40.8l-.89-12.44,41.48-65.54h19.96v62.06Zm-41.76,0h22.01v-35.13l-1.3,2.26-20.71,32.87Z"></path><polygon class="cls-14" points="449.32 857.87 533.2 921.38 518.84 942.98 430.98 883.39 449.32 857.87"></polygon><circle id="C" class="cls-14" cx="440.04" cy="870.55" r="15.72"></circle><path class="cls-14" d="m560.6,977.05c.96.33,4.81,1.72,6.09-.98,1-2.11-.05-5.42-2.98-7.97-1.44-1.25-3.8-3.22-4.18-3.54l-6.21,8.27s5.21,3.52,7.29,4.22Z"></path><circle id="C-2" class="cls-14" cx="556" cy="968.37" r="5.2"></circle><circle id="C-3" class="cls-14" cx="546.88" cy="961.53" r="5.2"></circle><path class="cls-14" d="m559.02,964.15l-8.98-6.75-6.36,8.22s7.96,6.35,9.64,7.21l5.7-8.68Z"></path><circle id="C-4" class="cls-14" cx="564.33" cy="964" r="5.2"></circle><path class="cls-14" d="m571.09,975.39c.93.4,4.66,2.1,6.14-.49,1.16-2.02.34-4.8-2.38-7.57-1.34-1.36-6.65-6.85-6.99-7.13l-6.84,7.82s8.05,6.51,10.06,7.38Z"></path><path class="cls-5" d="m561.03,968.01s2.94,2.38,5.71,4.45"></path><circle id="C-5" class="cls-14" cx="551.43" cy="955.79" r="5.2"></circle><path class="cls-14" d="m567.07,959.58l-12.84-8.18-5.68,8.7s11.06,7,12.5,7.92l6.02-8.45Z"></path><path class="cls-5" d="m548.55,960.11s11.06,7,12.5,7.92"></path><circle id="C-6" class="cls-14" cx="570.35" cy="959.31" r="5.2"></circle><path class="cls-14" d="m578.95,971.8c.94.38,4.71,1.97,6.13-.66,1.11-2.05.21-4.8-2.58-7.5-1.37-1.32-8.27-7.88-8.62-8.15l-6.43,8.13s9.47,7.37,11.51,8.19Z"></path><path class="cls-5" d="m567.44,963.62s6.48,5.04,9.87,7.24"></path><circle id="C-7" class="cls-14" cx="556.12" cy="950.19" r="5.2"></circle><path class="cls-14" d="m573.1,954.91l-14.45-9.25-5.57,8.75s11.06,6.99,14.37,9.22l5.66-8.71Z"></path><path class="cls-5" d="m553.08,954.4s11.06,6.99,14.37,9.22"></path><circle id="C-8" class="cls-14" cx="574.33" cy="950.08" r="5.2"></circle><path class="cls-14" d="m582,961.41c.95.35,4.77,1.82,6.1-.85,1.04-2.09-.25-5.49-3.13-8.1-1.41-1.28-7.01-6.17-7.32-6.37l-6.36,8.21s8.66,6.36,10.71,7.11Z"></path><path class="cls-5" d="m571.29,954.3s2.7,1.98,5.44,3.87"></path><circle id="C-9" class="cls-14" cx="561.23" cy="942.2" r="5.2"></circle><path class="cls-14" d="m577.02,945.63l-13.37-8.03-5.35,8.89s11.86,7.11,13.28,8l5.44-8.85Z"></path><path class="cls-5" d="m558.3,946.49s11.86,7.11,13.28,8"></path><path class="cls-14" d="m521.28,920.09c-6.68,2.61-9.95,10.16-7.33,16.84,2.63,6.67,10.16,9.95,16.84,7.33,6.67-2.63,9.99-10.18,7.33-16.84-2.65-6.63-10.18-9.93-16.84-7.33Z"></path><path class="cls-14" d="m563.82,940.15c.47-1.12.88-1.94-.17-2.55-8.26-4.78-20.73-11.67-30.55-16.32l-14.27,21.7c5.11,5.15,18.24,17.07,24.85,22.64.98.83,2.79.93,3.54-.11,0,0,15.76-23.36,16.61-25.36Z"></path><line class="cls-5" x1="560.72" y1="945.32" x2="549.2" y2="962.71"></line><g id="C-10"><circle class="cls-14" cx="560.69" cy="943.4" r="5.36"></circle><circle class="cls-5" cx="560.69" cy="943.4" r="5.36"></circle></g><path class="cls-14" d="m573.71,950.18c-2.12,4.59-6.63,3.18-13.32-.81-.85-.51-1.53-.84-2.31-1.3l5.51-9.19c5.72,3.55,11.6,8.1,10.13,11.29Z"></path><path class="cls-5" d="m563.58,938.89c5.72,3.55,11.6,8.1,10.13,11.29-2.12,4.59-6.63,3.18-13.32-.81-.85-.51-1.53-.84-2.31-1.3"></path><g id="C-11"><circle class="cls-14" cx="551.23" cy="938.66" r="5.36"></circle></g><path class="cls-14" d="m548.75,943.42l9.32,4.66,5.33-9.3c-5.05-2.85-9.94-4.99-9.94-4.99l-4.7,9.63Z"></path><path class="cls-5" d="m534.06,944.46c9.74,3.67,14.69-1.04,14.69-1.04l9.32,4.66"></path><path class="cls-5" d="m563.4,938.78c-5.05-2.85-9.94-4.99-9.94-4.99"></path><g id="Artwork_539"><rect class="cls-14" x="540.4" y="729.43" width="29.55" height="37.49"></rect><path class="cls-9" d="m557.09,737.76s-6.75,15.63-16.7,20.81v-12.39l16.7-8.42Z"></path><circle id="C-12" class="cls-14" cx="555.17" cy="767.44" r="14.81"></circle><ellipse class="cls-5" cx="508.31" cy="709.13" rx="6.37" ry="10.15"></ellipse><path class="cls-14" d="m577.91,706.36c-.22,3.41-.9,7.43-1.61,10.95-1.12,5.57-4.21,10.54-8.69,14.04-8.14,6.35-21.6,16.18-28.16,17.21-14.3,2.23-20.21-4.36-24.62-13.09-2.48-4.89-3.87-12.55-4.65-19.23-.62-5.2-.86-9.81-.95-12.1-.04-.97-.05-1.52-.05-1.52,0,0,.07-4.54.95-8.89.32-1.58.74-3.14,1.31-4.45,2.14-4.91,9.05-20.77,31.15-21.15,22.09-.38,31.39,10.85,34.42,20.97,1.31,4.39,1.32,11.08.91,17.26Z"></path><path class="cls-14" d="m509.95,709.09s-2.84,4.52-2.35,8.29c.49,3.77,5.1,7.01,5.1,7.01"></path><path class="cls-10" d="m521.4,714.17s-4.15,4.5-10.21,1.73c-.39-.17-.75-.37-1.08-.58-.62-5.2-.86-9.81-.95-12.1,1.71-.47,3.77-.51,5.92.55,5.47,2.72,6.33,10.39,6.33,10.39Z"></path><ellipse class="cls-9" cx="514.52" cy="710.16" rx="4.92" ry="6.61" transform="translate(-45.95 35.67) rotate(-3.8)"></ellipse><path class="cls-5" d="m510.12,697.63s.7-1.76,5.46,1.35"></path><path class="cls-9" d="m524.8,714.38l1.62-12.94s-4.56-1.15-8.72-6.79c-3.9-5.3-3.52-10.84-3.52-10.84,0,0,3.87-9.44,16.37-14.56,9.85-4.04,21.51-3.49,29.59-.04,23.06,9.84,19.78,36.01,17.29,46.59-1.5,6.36-7.13,17.18-7.13,17.18h0c-7.78,2.83-16.38,2.65-23.93-.75-.89-.4-1.8-.84-2.71-1.32-4.42-2.31-18.86-16.53-18.86-16.53Z"></path><circle class="cls-9" cx="565.21" cy="670.33" r="16.4"></circle><path class="cls-9" d="m578.96,695.84c.25,14.19,7.88,17.74,3.86,27.71-3.19,7.91-3.63,15.04,2.18,20.89,5.4,5.44,4.15,11.84.02,12.91-4.13,1.08-44.37,5.22-53.15.96-7.65-3.72,3.32-13.72,0-18.01-7.91-10.21,3.79-18.55,3.79-18.55l-5.07-21.66"></path><ellipse class="cls-14" cx="532.06" cy="719.34" rx="10.2" ry="13.95"></ellipse><line class="cls-5" x1="536.79" y1="712.74" x2="529.26" y2="723.04"></line><path class="cls-5" d="m532.06,733.29c-1.58,0-3.08-.49-4.42-1.37-1.51-1-2.82-2.49-3.8-4.32"></path><path class="cls-15" d="m534.33,735.76l-3.95,5.37c-.25.34-.76.34-1.01,0l-3.95-5.37c-.16-.22-.16-.52,0-.74l3.95-5.37c.25-.34.76-.34,1.01,0l3.95,5.37c.16.22.16.52,0,.74Z"></path><line class="cls-5" x1="527.41" y1="706.37" x2="501.97" y2="709.85"></line></g><polygon class="cls-14" points="541.07 1022 630.19 1033.17 635.21 990.94 547.33 972.81 541.07 1022"></polygon><polygon class="cls-9" points="539.18 1034.18 629.55 1038.48 636.11 984.2 548.07 967.4 539.18 1034.18"></polygon><circle id="C-13" class="cls-9" cx="542.27" cy="1000.64" r="33.68"></circle><circle id="C-14" class="cls-9" cx="629.57" cy="1010.89" r="27.5"></circle><circle id="C-15" class="cls-9" cx="570.15" cy="919.22" r="42.25"></circle><path class="cls-9" d="m519.55,999.07l93.36-.56c4.91-.03,6.9-5.5,6.25-11.24l-6.75-67.85h-84.5s-16.05,32.57-19.35,80.17c-.4,5.72,6.11-.49,11-.52Z"></path><path class="cls-4" d="m573.71,919.43s-.19,19.45-1.23,68.08c0,0-1.92,20.58,12.85,24.15"></path><line class="cls-4" x1="612.8" y1="931.05" x2="523.2" y2="931.05"></line><circle id="C-16" class="cls-14" cx="494.64" cy="1075.71" r="16.45"></circle><polygon class="cls-14" points="680.58 992.53 507.99 1053.59 498.92 1056.79 488.15 1060.59 498.36 1091.74 509.29 1088.45 518.5 1085.67 693.24 1031.16 680.58 992.53"></polygon><polygon class="cls-9" points="678.27 984.72 497.09 1051.68 500.14 1060.21 532.28 1056.39 504.44 1072.21 512.9 1095.84 694.77 1037.23 678.27 984.72"></polygon><circle id="C-17" class="cls-9" cx="686.52" cy="1010.98" r="27.5"></circle><line class="cls-4" x1="532.28" y1="1056.39" x2="683.7" y2="1002.17"></line><circle id="C-18" class="cls-9" cx="468.26" cy="1129.88" r="18.37"></circle><circle id="C-19" class="cls-15" cx="468.26" cy="1129.88" r="8.48"></circle><path class="cls-15" d="m450.39,1134.56l13.48,37.27c.12-.04,4.14-1.5,8.39-5.76,3.01-3,10.87-5.15,12.81-11.43.95-3.08-.27-16.22,1.3-21.03l-35.98.95Z"></path><path class="cls-9" d="m450.47,1134.56l7.12,19.87,6.29,17.39c.12-.04,4.13-1.5,8.37-5.73l-11.39-31.81-10.38.28Z"></path><circle id="C-20" class="cls-1" cx="494.64" cy="1075.71" r="16.45"></circle><path class="cls-15" d="m428.45,1073.08l21.94,61.48h.07s10.39-.26,10.39-.26l25.51-.65h.03c6.19-19.09,13.89-41.99,13.89-41.99,0,0,0-2.2-12.48-3.44l.53-27.14s1.35-6.95-26.04,1.36c-11.47,3.48-19.27,5.91-24.46,7.55h-.02c-7.18,2.3-9.36,3.07-9.36,3.07Z"></path><path class="cls-9" d="m428.45,1073.08l22.02,61.48,10.38-.28-23.02-64.27h-.02c-7.18,2.3-9.36,3.07-9.36,3.07Z"></path><path class="cls-5" d="m498.84,1089.98l-12.31,40.44s-7.2,7.08-25.69,3.86"></path><path class="cls-5" d="m459.33,1063.35s-1.6,13.85-15.97,22.09"></path><polygon class="cls-14" points="597.75 1022 686.95 1033.18 692.19 991.01 604.01 972.81 597.75 1022"></polygon><polygon class="cls-9" points="596.09 1034.18 686.47 1038.48 693.92 984.49 604.98 967.4 596.09 1034.18"></polygon><circle id="C-21" class="cls-9" cx="598.96" cy="1000.64" r="33.68"></circle><path class="cls-4" d="m602.02,1011.48c23.64,4,46.12,6.64,60.25,8.11"></path><path class="cls-4" d="m572.65,979.61l.7,6.58c1.27,11.91,10.17,21.6,21.94,23.86l11.51,2.22"></path><line class="cls-4" x1="617.41" y1="969.78" x2="617.41" y2="979.19"></line><line class="cls-4" x1="593.26" y1="1037.6" x2="650.83" y2="1037.6"></line><polygon class="cls-14" points="531.05 805 450.96 881.99 428.87 859.64 504.91 779.35 531.05 805"></polygon><path class="cls-15" d="m487.33,847.06l-36.12-32.07c1.5-1.6,50.08-37.99,62.82-41.08l17.01,31.09-43.71,42.05Z"></path><circle id="C-22" class="cls-15" cx="518.45" cy="791.69" r="18.32"></circle><line class="cls-5" x1="458.62" y1="809.38" x2="493.92" y2="840.73"></line><circle id="C-23" class="cls-1" cx="569.77" cy="919.24" r="42.25"></circle><circle id="C-24" class="cls-1" cx="569.77" cy="919.24" r="42.25"></circle><path class="cls-15" d="m613.96,782.26c-.9-6.96-1.97-13.14-9.01-14.72-16.92-3.78-35.27-3.4-35.27-3.4l-29.38,2.53s-13.48,1.65-27.66,7.7c-6.63,2.82-8.19,10.27-7.89,17.28l6.34,140.94,56.28-4.84,7.11-.61,65.82-5.66-26.35-139.22Z"></path><line class="cls-5" x1="507.55" y1="853.85" x2="505.63" y2="811.12"></line><circle id="C-25" class="cls-1" cx="569.77" cy="919.24" r="42.25"></circle><polygon class="cls-14" points="646.32 871.59 708.24 785.38 729.7 799.96 672.32 889.26 646.32 871.59"></polygon><circle id="C-26" class="cls-14" cx="659.32" cy="880.42" r="15.72"></circle><polygon class="cls-14" points="617.42 776.09 672.79 872.44 645.91 888.73 586.1 795.07 617.42 776.09"></polygon><circle id="C-27" class="cls-15" cx="601.76" cy="785.57" r="18.31"></circle><path class="cls-15" d="m618.9,846.43l44.62-27.38c-1.22-1.82-24.69-37.51-51.69-48.83l-27.33,22.72,34.4,53.5Z"></path><line class="cls-5" x1="618.9" y1="846.43" x2="591.95" y2="805.75"></line><line class="cls-5" x1="658.06" y1="811.35" x2="613.89" y2="838.87"></line><path class="cls-9" d="m770.4,772.95c-.2,5.1-4.96,5.54-12.74,4.41-.99-.14-1.95-.28-2.85-.39l1.81-10.67c6.71,1.1,13.92,3.1,13.78,6.66Z"></path><circle id="C-28" class="cls-9" cx="755.62" cy="771.67" r="5.41"></circle><circle id="C-29" class="cls-9" cx="745.91" cy="776.15" r="5.41"></circle><path class="cls-9" d="m753.69,766.56l3.98,10.06c-5.7,2.5-9.17,4.3-9.17,4.3l-4.99-9.61s4.76-2.57,10.19-4.75Z"></path><path class="cls-14" d="m771.34,753.24c.96-.37,4.74-2.33,5.78.5.81,2.21-.31,5.37-3.5,7.67-1.53,1.11-8.15,5.58-8.24,5.59,0,0-5.26-9.05-5.26-9.05,0,0,7.59-3.31,11.21-4.7Z"></path><circle id="C-30" class="cls-14" cx="762.34" cy="762.72" r="5.25"></circle><circle id="C-31" class="cls-14" cx="748.32" cy="769.36" r="5.25"></circle><path class="cls-14" d="m764.64,767.44l-14.36,6.79-4.48-9.48s13.51-6.84,15.08-7.03l3.76,9.72Z"></path><path class="cls-14" d="m746.08,764.61c3.4-.35,6.38,3.68,6.38,3.68,0,0,13.72,6.08,15.55,10.12,1.83,4.04.16,6.66.16,6.66,0,0,2.16,5.21.03,8.62,0,0,2.5,4.91-4.86,9.04-7.36,4.13-9.19,2.89-9.74,2.49-2.3-1.66-1.7-3.7-1.76-4.05l-3.84,1.32c-5.76,1.72-23.28,4.29-29.52,2.82l-4.31-24.9s27.05-15.3,31.9-15.8Z"></path><path class="cls-5" d="m768.17,785.07c-3.82-2.98-8.87-5.36-14.8-7.31"></path><path class="cls-5" d="m760.3,771.74s-3.27-1.66-6.36-1.59"></path><path class="cls-5" d="m768.27,794.15s-5.88-5.46-16.44-7.2"></path><path class="cls-5" d="m751.85,801.17s3-.36,7.2-3.12"></path><circle id="C-32" class="cls-14" cx="719.16" cy="792.41" r="12.98"></circle><path class="cls-14" d="m390.66,916.71c1,.16,5.03.9,5.84-1.97.63-2.24-.95-5.34-4.27-7.37-1.63-.99-4.28-2.55-4.71-2.8l-4.75,9.18s5.73,2.6,7.89,2.95Z"></path><circle id="C-33" class="cls-14" cx="384.68" cy="908.92" r="5.2"></circle><circle id="C-34" class="cls-14" cx="374.55" cy="903.69" r="5.2"></circle><path class="cls-14" d="m386.95,904.25l-9.98-5.16-4.9,9.16s8.91,4.94,10.7,5.51l4.18-9.51Z"></path><circle id="C-35" class="cls-14" cx="392.16" cy="903.22" r="5.2"></circle><path class="cls-14" d="m400.73,913.33c.99.24,4.94,1.29,5.98-1.5.81-2.19-.46-4.79-3.6-7.07-1.54-1.12-7.69-5.65-8.07-5.87l-5.44,8.85s9.02,5.08,11.15,5.6Z"></path><path class="cls-5" d="m389.58,907.73s3.29,1.85,6.37,3.44"></path><circle id="C-36" class="cls-14" cx="378.08" cy="897.27" r="5.2"></circle><path class="cls-14" d="m394.14,898.41l-14.03-5.92-4.15,9.53s12.07,5.06,13.64,5.73l4.53-9.34Z"></path><path class="cls-5" d="m375.96,902.01s12.07,5.06,13.64,5.73"></path><circle id="C-37" class="cls-14" cx="397.32" cy="897.6" r="5.2"></circle><path class="cls-14" d="m407.88,908.49c.99.22,4.97,1.16,5.93-1.67.75-2.21-.59-4.77-3.8-6.97-1.57-1.08-9.46-6.4-9.86-6.6l-4.99,9.08s10.57,5.69,12.71,6.16Z"></path><path class="cls-5" d="m395.17,902.33s7.23,3.89,10.94,5.5"></path><circle id="C-38" class="cls-14" cx="381.77" cy="890.97" r="5.2"></circle><path class="cls-14" d="m399.3,892.79l-15.79-6.72-4.04,9.56s12.07,5.05,15.7,6.7l4.13-9.53Z"></path><path class="cls-5" d="m379.47,895.63s12.07,5.05,15.7,6.7"></path><circle id="C-39" class="cls-14" cx="399.71" cy="887.84" r="5.2"></circle><path class="cls-14" d="m409.16,897.73c1,.18,5.01,1,5.88-1.86.68-2.23-1.16-5.38-4.44-7.47-1.61-1.03-7.94-4.92-8.28-5.06l-4.91,9.15s9.59,4.83,11.75,5.23Z"></path><path class="cls-5" d="m397.41,892.5s2.99,1.51,6.01,2.91"></path><circle id="C-40" class="cls-14" cx="385.48" cy="882.24" r="5.2"></circle><path class="cls-14" d="m401.62,883l-14.52-5.7-3.8,9.65s12.87,5.03,14.42,5.68l3.9-9.64Z"></path><path class="cls-5" d="m383.3,886.96s12.87,5.03,14.42,5.68"></path><circle id="C-41" class="cls-14" cx="349.11" cy="878.21" r="12.98"></circle><path class="cls-14" d="m387.7,879.79c.28-1.19.55-2.06-.59-2.49-8.94-3.34-22.38-8.06-32.84-11.01l-10.46,23.77c5.89,4.23,20.82,13.8,28.27,18.19,1.1.65,2.91.45,3.47-.7,0,0,11.66-25.65,12.16-27.76Z"></path><line class="cls-5" x1="385.5" y1="885.4" x2="377.04" y2="904.47"></line><g id="C-42"><circle class="cls-14" cx="385.15" cy="883.52" r="5.36"></circle><circle class="cls-5" cx="385.15" cy="883.52" r="5.36"></circle></g><path class="cls-14" d="m399.12,888.04c-1.33,4.88-6.01,4.24-13.27,1.42-.93-.36-1.65-.58-2.5-.89l3.9-9.98c6.23,2.55,12.79,6.05,11.86,9.45Z"></path><path class="cls-5" d="m387.25,878.59c6.23,2.55,12.79,6.05,11.86,9.45-1.33,4.88-6.01,4.24-13.27,1.42-.93-.36-1.65-.58-2.5-.89"></path><g id="C-43"><circle class="cls-14" cx="375.03" cy="880.42" r="5.36"></circle></g><path class="cls-14" d="m373.38,885.52l9.97,3.05,3.7-10.06c-5.45-1.97-10.63-3.27-10.63-3.27l-3.04,10.27Z"></path><path class="cls-5" d="m359.07,888.99c10.21,2,14.31-3.47,14.31-3.47l9.97,3.05"></path><path class="cls-5" d="m387.06,878.51c-5.45-1.97-10.63-3.27-10.63-3.27"></path><path class="cls-9" d="m273.33,859.62l-45.1-35.47c1.42-1.67,2.83-3.35,4.25-5.05,29.86-35.74,63.76-73.05,81.33-77.9l24.54,25.7-65.03,92.72Z"></path><circle id="C-44" class="cls-9" cx="322.85" cy="757.14" r="18.32"></circle><path class="cls-9" d="m360.55,867.84l-15.68,32.69c-31.88,7.18-67.41-12.67-106.48-33.04l24.82-51.73,11,4.56c73.65,33.49,86.34,47.53,86.34,47.53Z"></path><circle id="C-45" class="cls-9" cx="250.8" cy="841.62" r="28.69"></circle><g id="Artwork_600"><rect class="cls-14" x="345.25" y="692.89" width="29.55" height="37.49"></rect><path class="cls-9" d="m358.11,701.22s6.75,15.63,16.7,20.81v-12.39l-16.7-8.42Z"></path><circle id="C-46" class="cls-14" cx="360.03" cy="730.9" r="14.81"></circle><path class="cls-14" d="m405.25,672.55s2.84,4.52,2.35,8.29-5.1,7.01-5.1,7.01"></path><path class="cls-14" d="m337.29,669.83c.22,3.41.9,7.43,1.61,10.95,1.12,5.57,4.21,10.54,8.69,14.04,8.14,6.35,21.6,16.18,28.16,17.21,14.3,2.23,20.21-4.36,24.62-13.09,2.47-4.89,3.87-12.55,4.65-19.23.62-5.2.86-9.81.95-12.1.04-.97.05-1.52.05-1.52,0,0-.07-4.54-.95-8.89-.32-1.58-.74-3.14-1.31-4.45-2.14-4.91-9.05-20.77-31.15-21.15-22.09-.38-31.39,10.85-34.42,20.97-1.31,4.39-1.32,11.08-.91,17.26Z"></path><path class="cls-10" d="m393.8,677.63s4.15,4.5,10.21,1.73c.39-.17.75-.37,1.08-.58.62-5.2.86-9.81.95-12.1-1.71-.47-3.77-.51-5.92.55-5.47,2.72-6.33,10.39-6.33,10.39Z"></path><ellipse class="cls-9" cx="400.68" cy="673.62" rx="6.61" ry="4.92" transform="translate(-298.02 1028.76) rotate(-86.2)"></ellipse><path class="cls-5" d="m405.09,661.09s-.7-1.76-5.46,1.35"></path><path class="cls-9" d="m390.4,677.84s-3.54-16.86-.75-21.45c.82-1.34,5.24-1.82,7.04-1.94,5.18-.35,4.87-6.25,4.87-6.25,0,0-4.42-10.37-16.91-15.49-9.85-4.04-21.24-3.45-29.72-1.13-13.51,3.71-25.35,16.48-17.88,47.61,1.52,6.35,7.85,17.25,7.85,17.25h0c7.78,2.83,16.38,2.65,23.93-.75.89-.4,1.8-.84,2.71-1.32,4.42-2.31,18.86-16.53,18.86-16.53Z"></path><circle class="cls-9" cx="344.58" cy="690.09" r="6.82"></circle><circle class="cls-9" cx="350.91" cy="693.79" r="6.82"></circle><circle class="cls-9" cx="360.89" cy="693.1" r="6.82"></circle><circle class="cls-9" cx="367.94" cy="690.08" r="6.82"></circle><circle class="cls-9" cx="339.2" cy="681.16" r="6.82"></circle><circle class="cls-9" cx="338.04" cy="670.86" r="6.82"></circle><circle class="cls-9" cx="337.61" cy="659.75" r="6.82"></circle><circle class="cls-9" cx="339.2" cy="649.18" r="6.82"></circle><circle class="cls-9" cx="344.52" cy="640.83" r="6.82"></circle><circle class="cls-9" cx="353.58" cy="634.07" r="6.82"></circle><circle class="cls-9" cx="363.89" cy="630.43" r="6.82"></circle><circle class="cls-9" cx="375.74" cy="629.96" r="6.82"></circle><circle class="cls-9" cx="384.57" cy="633.82" r="6.82"></circle><circle class="cls-9" cx="391.26" cy="638.24" r="6.82"></circle><circle class="cls-9" cx="396.69" cy="644.08" r="6.82"></circle><circle class="cls-9" cx="399.09" cy="649.05" r="6.82"></circle><circle class="cls-9" cx="389" cy="652.42" r="6.82"></circle><ellipse class="cls-14" cx="383.14" cy="682.8" rx="10.2" ry="13.95"></ellipse><line class="cls-5" x1="378.41" y1="676.2" x2="385.94" y2="686.5"></line><path class="cls-5" d="m375.29,691.7c1.87,3.09,4.7,5.06,7.86,5.06,1.58,0,3.08-.49,4.42-1.37,1.51-1,2.82-2.49,3.8-4.32"></path></g><polygon class="cls-14" points="342.14 998.75 421.13 1015.56 431.07 976.14 353.61 950.51 342.14 998.75"></polygon><polygon class="cls-15" points="345.12 999.39 404.91 1012.11 421.27 951.14 349.64 929.71 345.12 999.39"></polygon><circle id="C-47" class="cls-15" cx="346.78" cy="964.39" r="34.8"></circle><polygon class="cls-14" points="288.65 1149.96 314.88 1169.63 321.95 1160.66 327.89 1153.11 382.11 1084.35 440.24 1007.67 407.72 983.27 351.24 1062.48 300.89 1132.86 295.29 1140.67 288.65 1149.96"></polygon><circle id="C-48" class="cls-14" cx="423.99" cy="995.47" r="20.32"></circle><polygon class="cls-11" points="288.65 1149.96 314.88 1169.63 321.95 1160.66 327.89 1153.11 382.11 1084.35 351.24 1062.48 300.89 1132.86 295.29 1140.67 288.65 1149.96"></polygon><line class="cls-7" x1="374.35" y1="1094.2" x2="343.95" y2="1072.67"></line><line class="cls-7" x1="365.91" y1="1104.9" x2="336.09" y2="1083.77"></line><circle id="C-49" class="cls-14" cx="455.78" cy="974.27" r="20.32"></circle><line class="cls-7" x1="472.35" y1="1083.52" x2="435.1" y2="1083.52"></line><line class="cls-7" x1="471.65" y1="1097.14" x2="435.1" y2="1097.14"></line><polygon class="cls-14" points="373.3 993.07 454.05 994.54 456.31 953.95 375.38 943.52 373.3 993.07"></polygon><polygon class="cls-15" points="373.22 999.02 435.46 1001.34 447.6 938.71 371.85 929.64 373.22 999.02"></polygon><circle id="C-50" class="cls-15" cx="369.94" cy="964.39" r="34.8"></circle><line class="cls-7" x1="438.98" y1="983.03" x2="353.23" y2="981.27"></line><line class="cls-7" x1="437.22" y1="992.08" x2="351.38" y2="990.33"></line><line class="cls-5" x1="435.46" y1="1001.34" x2="359.24" y2="999.77"></line><circle id="C-51" class="cls-9" cx="375.26" cy="883.63" r="42.25"></circle><path class="cls-15" d="m324.66,963.48l91.08,1.21c4.91-.03,8.69-5.12,8.03-10.85-.85-7.5-.85-60.02-6.26-70.01h-84.5s-17.67,31.59-20.97,79.18c-.4,5.72,7.73.49,12.62.47Z"></path><path class="cls-7" d="m344.06,883.63s-15.56,52.34-13.24,74.2c1,9.48,4.33,16.39,8.91,19.76,5.98,4.39,13.37,3.63,13.37,3.63"></path><path class="cls-7" d="m336.39,883.63s-13.49,52.22-13.24,74.2c.35,31.88,28.23,32.5,28.23,32.5"></path><path class="cls-9" d="m417.04,883.84l-95.64,28.45c2.74-8.63,5.72-18.46,11.13-28.45h84.5Z"></path><line class="cls-5" x1="423.01" y1="935.55" x2="423.01" y2="946.31"></line><circle id="C-52" class="cls-1" cx="375.15" cy="883.65" r="42.25"></circle><path class="cls-9" d="m422.49,744.94c-1.03-6.94-4.97-14.01-12.03-15.45-16.99-3.47-29.7-2.15-29.7-2.15l-45.24,4.73s-4.33.52-18.4,6.82c-6.58,2.95-10.7,10.13-10.27,17.13l7.4,111.62c.91,12.09,11.63,21.05,23.69,19.79l32.75-3.42,7.1-.74,41.54-4.34c16.81-1.76,19.02-16.03,16.77-32.77l-13.59-101.21Z"></path><path class="cls-9" d="m402.56,722.51c2.42,13.82-9.67,27.49-33.88,31.73-24.2,4.25-45.79-3.51-48.21-17.33-2.42-13.82,10.11-18.74,35.6-21.21,24.46-2.38,44.07-7.01,46.49,6.81Z"></path><path class="cls-4" d="m399.6,737.01c-4.96,7.97-15.47,14.52-30.92,17.23-24.2,4.25-45.79-3.51-48.21-17.33"></path><path class="cls-4" d="m309.24,787.88l4.74,80.19c1.05,11.87,11.62,20.59,23.48,19.35h0"></path><g id="Poof"><path class="cls-12" d="m215.11,809.21c-33.09,25.31-63.37,69.76-80.94,130.65-36.99,128.15,62.14,206.21,62.14,206.21,0,0,4.17,3.49,11.98,8.71,41.31,27.6,93.86,42.56,148.03,42.56h200.53c40.02,0,78.28-13.81,103.57-38.24,24.55-23.72,40.16-60.22,14.11-114.09-27.87-57.64-46.62-134-104.69-168.82-40.9-24.53-124.8-68.06-146.81-85.16-15.16-11.77-31.76-22.41-43.56-36.36-19.76-23.36-87.38-4.32-164.35,54.56Z"></path></g><g id="Artwork_734"><path class="cls-14" d="m612.98,770.56c2.7,4.27-.93,7.3-7.91,10.75-.89.44-1.67.9-2.48,1.31l-4.66-9.65c6.08-2.87,13.17-5.38,15.05-2.41Z"></path><circle class="cls-14" cx="600.22" cy="777.81" r="5.36"></circle><circle class="cls-14" cx="591.1" cy="783.18" r="5.36"></circle><path class="cls-14" d="m593.75,787.84l8.84-5.23-4.74-9.61c-5.13,2.69-9.62,5.65-9.62,5.65"></path><path class="cls-14" d="m591.12,764.26c-9.05,5.1-13.11,8.98-23.1,13.97l7.06,24.99c7.3.64,12.03-1.97,20.46-4.07,1.24-.31,3.09-8.81,2.79-10.06,0,0-6.14-25.43-7.2-24.83Z"></path><circle id="C-53" class="cls-14" cx="571.6" cy="790.71" r="12.98"></circle><path class="cls-14" d="m619.78,769.42c1.01-.14,5.07-.64,4.99-3.62-.06-2.33-2.8-4.73-6.57-5.68-1.85-.47-8.64-2.05-9.32-2.15l-1.63,10.23s10.37,1.52,12.53,1.22Z"></path><circle class="cls-14" cx="607.68" cy="763.02" r="5.2"></circle><circle class="cls-14" cx="593.55" cy="768.85" r="5.2"></circle><path class="cls-14" d="m605.64,758.24l-14.05,5.8,3.86,9.65s12.19-4.88,14.1-5.82l-3.92-9.62Z"></path><circle class="cls-14" cx="611.96" cy="769.8" r="5.2"></circle><path class="cls-5" d="m606.78,769.44c.2-2.86,2.68-5.02,5.54-4.82,2.86.2,5.02,2.68,4.82,5.54"></path><path class="cls-14" d="m624.02,775.3c.99-.2,5.02-.94,4.77-3.91-.2-2.32-2.45-4.32-6.27-5.04-1.87-.36-8.91-1.58-9.64-1.66l-.96,10.31s9.95.73,12.1.3Z"></path><path class="cls-5" d="m624.57,766.91c-.62-.23-1.31-.42-2.06-.56-1.87-.36-8.91-1.58-9.64-1.66"></path><circle class="cls-14" cx="594.2" cy="776.22" r="5.2"></circle><path class="cls-14" d="m610.23,764.9l-17.84,6.44,3.55,9.77s17.44-5.85,18.66-6.83l-4.36-9.38Z"></path><line class="cls-5" x1="610.23" y1="764.9" x2="592.39" y2="771.35"></line><circle class="cls-14" cx="609.96" cy="780.44" r="5.2"></circle><path class="cls-5" d="m604.8,779.82c.34-2.85,2.93-4.88,5.78-4.53,2.85.34,4.88,2.93,4.53,5.78"></path><path class="cls-14" d="m621.69,786.59c1-.15,5.06-.66,4.97-3.64-.07-2.33-2.22-4.26-6-5.2-1.85-.46-9.04-2.29-9.58-2.39l-1.55,10.25s9.98,1.29,12.15.97Z"></path><path class="cls-5" d="m620.67,777.76c-1.85-.46-9.04-2.29-9.58-2.39"></path><circle class="cls-14" cx="595.19" cy="784.39" r="5.2"></circle><path class="cls-14" d="m608.75,775.39l-14.9,3.98,2.67,10.04s14.1-3.44,15.59-4.24l-3.36-9.78Z"></path><line class="cls-5" x1="608.75" y1="775.39" x2="593.85" y2="779.37"></line><path class="cls-14" d="m615.86,796.75c1.09-.54,4.5-2.02,4.21-5.06-.22-2.32-3.32-3.48-7.21-3.32-1.91.08-5.38-.19-5.9-.15l1.09,10.28s5.85-.78,7.81-1.75Z"></path><circle class="cls-14" cx="607.01" cy="793.41" r="5.2"></circle><circle class="cls-14" cx="595.62" cy="793.95" r="5.2"></circle><path class="cls-14" d="m606.74,788.22l-11.17.53.07,10.39s10.15-.15,12.35-.64l-1.26-10.29Z"></path><line class="cls-5" x1="601.92" y1="788.51" x2="595.21" y2="788.58"></line></g><g id="C-54"><circle class="cls-9" cx="482.29" cy="831.16" r="28.69"></circle></g><path class="cls-9" d="m591.53,802.92l-16.28-32.39c-32-6.59-67.16,13.91-105.85,35l25.77,51.26,17.43-7.89c73.02-34.85,78.94-45.98,78.94-45.98Z"></path><circle id="C-55" class="cls-9" cx="410.16" cy="747.93" r="18.32"></circle><path class="cls-9" d="m459.9,850.31l45.02-35.57c-1.42-1.67-68.17-77.96-85.76-82.77l-23.87,26.67,64.61,91.67Z"></path><line class="cls-4" x1="412.18" y1="782.6" x2="459.9" y2="850.31"></line><path class="cls-4" d="m465.01,771.07s18.06,18.92,24.54,26.66"></path><g id="Artwork_734-2"><path class="cls-14" d="m612.98,770.56c2.7,4.27-.93,7.3-7.91,10.75-.89.44-1.67.9-2.48,1.31l-4.66-9.65c6.08-2.87,13.17-5.38,15.05-2.41Z"></path><circle class="cls-14" cx="600.22" cy="777.81" r="5.36"></circle><circle class="cls-14" cx="591.1" cy="783.18" r="5.36"></circle><path class="cls-14" d="m593.75,787.84l8.84-5.23-4.74-9.61c-5.13,2.69-9.62,5.65-9.62,5.65"></path><path class="cls-14" d="m591.12,764.26c-9.05,5.1-13.11,8.98-23.1,13.97l7.06,24.99c7.3.64,12.03-1.97,20.46-4.07,1.24-.31,3.09-8.81,2.79-10.06,0,0-6.14-25.43-7.2-24.83Z"></path><circle id="C-56" class="cls-14" cx="571.6" cy="790.71" r="12.98"></circle><path class="cls-14" d="m619.78,769.42c1.01-.14,5.07-.64,4.99-3.62-.06-2.33-2.8-4.73-6.57-5.68-1.85-.47-8.64-2.05-9.32-2.15l-1.63,10.23s10.37,1.52,12.53,1.22Z"></path><circle class="cls-14" cx="607.68" cy="763.02" r="5.2"></circle><circle class="cls-14" cx="593.55" cy="768.85" r="5.2"></circle><path class="cls-14" d="m605.64,758.24l-14.05,5.8,3.86,9.65s12.19-4.88,14.1-5.82l-3.92-9.62Z"></path><circle class="cls-14" cx="611.96" cy="769.8" r="5.2"></circle><path class="cls-5" d="m606.78,769.44c.2-2.86,2.68-5.02,5.54-4.82,2.86.2,5.02,2.68,4.82,5.54"></path><path class="cls-14" d="m624.02,775.3c.99-.2,5.02-.94,4.77-3.91-.2-2.32-2.45-4.32-6.27-5.04-1.87-.36-8.91-1.58-9.64-1.66l-.96,10.31s9.95.73,12.1.3Z"></path><path class="cls-5" d="m624.57,766.91c-.62-.23-1.31-.42-2.06-.56-1.87-.36-8.91-1.58-9.64-1.66"></path><circle class="cls-14" cx="594.2" cy="776.22" r="5.2"></circle><path class="cls-14" d="m610.23,764.9l-17.84,6.44,3.55,9.77s17.44-5.85,18.66-6.83l-4.36-9.38Z"></path><line class="cls-5" x1="610.23" y1="764.9" x2="592.39" y2="771.35"></line><circle class="cls-14" cx="609.96" cy="780.44" r="5.2"></circle><path class="cls-5" d="m604.8,779.82c.34-2.85,2.93-4.88,5.78-4.53,2.85.34,4.88,2.93,4.53,5.78"></path><path class="cls-14" d="m621.69,786.59c1-.15,5.06-.66,4.97-3.64-.07-2.33-2.22-4.26-6-5.2-1.85-.46-9.04-2.29-9.58-2.39l-1.55,10.25s9.98,1.29,12.15.97Z"></path><path class="cls-5" d="m620.67,777.76c-1.85-.46-9.04-2.29-9.58-2.39"></path><circle class="cls-14" cx="595.19" cy="784.39" r="5.2"></circle><path class="cls-14" d="m608.75,775.39l-14.9,3.98,2.67,10.04s14.1-3.44,15.59-4.24l-3.36-9.78Z"></path><line class="cls-5" x1="608.75" y1="775.39" x2="593.85" y2="779.37"></line><path class="cls-14" d="m615.86,796.75c1.09-.54,4.5-2.02,4.21-5.06-.22-2.32-3.32-3.48-7.21-3.32-1.91.08-5.38-.19-5.9-.15l1.09,10.28s5.85-.78,7.81-1.75Z"></path><circle class="cls-14" cx="607.01" cy="793.41" r="5.2"></circle><circle class="cls-14" cx="595.62" cy="793.95" r="5.2"></circle><path class="cls-14" d="m606.74,788.22l-11.17.53.07,10.39s10.15-.15,12.35-.64l-1.26-10.29Z"></path><line class="cls-5" x1="601.92" y1="788.51" x2="595.21" y2="788.58"></line></g><g id="C-57"><circle class="cls-9" cx="482.29" cy="831.16" r="28.69"></circle></g><path class="cls-9" d="m591.53,802.92l-16.28-32.39c-32-6.59-67.16,13.91-105.85,35l25.77,51.26,17.43-7.89c73.02-34.85,78.94-45.98,78.94-45.98Z"></path><circle id="C-58" class="cls-9" cx="410.16" cy="747.93" r="18.32"></circle><path class="cls-9" d="m459.9,850.31l45.02-35.57c-1.42-1.67-68.17-77.96-85.76-82.77l-23.87,26.67,64.61,91.67Z"></path><line class="cls-4" x1="412.18" y1="782.6" x2="459.9" y2="850.31"></line><path class="cls-4" d="m465.01,771.07s18.06,18.92,24.54,26.66"></path><g id="popcorn"><path class="cls-16" d="m1026.18,770.92c1.39.32,2.6,1.3,3.17,2.73.91,2.31-.23,4.92-2.54,5.83s-4.92-.23-5.83-2.54"></path><path class="cls-13" d="m1028.51,790.38c1.41.45,2.98.43,4.47-.15,3.32-1.31,5.01-4.98,3.91-8.33,1.13.3,2.36.26,3.53-.2,2.93-1.15,4.37-4.46,3.22-7.4-.04-.09-.08-.18-.12-.26,2.41-1.03,3.58-3.79,2.61-6.24-.68-1.73-2.25-2.83-3.98-3.03.67-1.02.86-2.34.38-3.57-.79-2.01-3.06-2.99-5.06-2.2-.07.03-.13.07-.19.1-.01-.65-.14-1.31-.39-1.96-1.15-2.93-4.46-4.37-7.4-3.22-1.16.46-2.09,1.26-2.71,2.24-1.16-2.92-4.46-4.35-7.39-3.2-2.31.91-3.69,3.16-3.61,5.51-.02-.07-.04-.14-.07-.2-1.36-3.45-5.25-5.14-8.69-3.79-3.45,1.36-5.14,5.25-3.78,8.69.97,2.47,3.25,4.03,5.73,4.22-1.03,1.51-1.32,3.48-.6,5.31.79,2,2.57,3.3,4.56,3.56-.56,1.5-.6,3.2.03,4.81.7,1.79,2.09,3.1,3.74,3.76-1.41,1.81-1.87,4.29-.97,6.59,1.36,3.45,5.25,5.14,8.69,3.78,2.16-.85,3.64-2.7,4.1-4.82Z"></path><path class="cls-5" d="m1024.41,795.2c-3.45,1.36-7.34-.34-8.69-3.78"></path><path class="cls-5" d="m1029.49,753.9c2.93-1.15,6.24.29,7.4,3.22,1.15,2.93-.29,6.24-3.22,7.4"></path><path class="cls-5" d="m1019.39,752.94c2.93-1.15,6.24.29,7.4,3.22s-.29,6.24-3.22,7.4"></path><path class="cls-5" d="m1043.64,774.3c1.15,2.93-.29,6.24-3.22,7.4s-6.24-.29-7.4-3.22"></path><path class="cls-5" d="m1046.14,767.79c.98,2.5-.25,5.33-2.75,6.31-2.5.98-5.33-.25-6.31-2.75"></path><path class="cls-13" d="m1020.59,770.84c.93-1.15,1.49-2.62,1.49-4.21,0-3.57-2.8-6.48-6.32-6.69.69-.94,1.1-2.1,1.1-3.36,0-3.15-2.55-5.7-5.7-5.7-.1,0-.19,0-.29.01-.08-2.62-2.22-4.72-4.85-4.72-1.86,0-3.46,1.06-4.28,2.59-.71-1-1.87-1.66-3.18-1.66-2.16,0-3.9,1.75-3.9,3.9,0,.07.02.14.02.22-.61-.23-1.27-.35-1.96-.35-3.15,0-5.7,2.55-5.7,5.7,0,1.25.41,2.4,1.09,3.34-3.14,0-5.69,2.56-5.69,5.7,0,2.49,1.59,4.59,3.81,5.38-.07,0-.14-.01-.21-.01-3.7,0-6.71,3-6.71,6.7s3,6.7,6.71,6.7c2.65,0,4.94-1.55,6.03-3.78,1.03,1.51,2.76,2.51,4.72,2.51,2.15,0,4.01-1.19,4.99-2.94,1.19,1.07,2.76,1.73,4.48,1.73,1.92,0,3.65-.81,4.87-2.1,1.17,1.98,3.31,3.31,5.77,3.31,3.7,0,6.7-3,6.7-6.7,0-2.33-1.19-4.37-2.98-5.58Z"></path><path class="cls-5" d="m1023.57,776.41c0,3.7-3,6.7-6.7,6.7"></path><path class="cls-5" d="m987,756.57c0-3.15,2.55-5.7,5.7-5.7s5.7,2.55,5.7,5.7"></path><path class="cls-5" d="m982.41,765.62c0-3.15,2.55-5.7,5.7-5.7s5.7,2.55,5.7,5.7"></path><path class="cls-5" d="m1011.16,750.87c3.15,0,5.7,2.55,5.7,5.7s-2.55,5.7-5.7,5.7"></path><path class="cls-5" d="m1006.02,746.17c2.69,0,4.87,2.18,4.87,4.87s-2.18,4.87-4.87,4.87"></path><path class="cls-5" d="m1002.41,766.26c.84-1.22,2.24-2.01,3.83-2.01,2.57,0,4.65,2.08,4.65,4.65s-2.08,4.65-4.65,4.65"></path><path class="cls-12" d="m998.48,844.93h-9.9s-9.31-63.16-9.31-63.16c-.64-5.28,1.98-8.8,5.87-8.8h0c3.89,0,7.37,3.52,7.76,8.8l5.59,63.16Z"></path><path class="cls-10" d="m1008.39,844.93h-9.9s-5.59-63.16-5.59-63.16c-.38-5.28,2.45-8.8,6.34-8.8h0c3.89,0,7.16,3.52,7.29,8.8l1.86,63.16Z"></path><path class="cls-12" d="m1018.29,844.93h-9.9s-1.86-63.16-1.86-63.16c-.13-5.28,2.92-8.8,6.81-8.8h0c3.89,0,6.94,3.52,6.81,8.8l-1.86,63.16Z"></path><path class="cls-10" d="m1028.19,844.93h-9.9s1.86-63.16,1.86-63.16c.13-5.28,3.39-8.8,7.29-8.8h0c3.89,0,6.73,3.52,6.34,8.8l-5.59,63.16Z"></path><path class="cls-12" d="m1038.1,844.93h-9.9s5.59-63.16,5.59-63.16c.38-5.28,3.86-8.8,7.76-8.8h0c3.89,0,6.51,3.52,5.87,8.8l-9.31,63.16Z"></path></g><path class="cls-14" d="m1201.04,953.99c-.86.54-4.27,2.8-6.14.48-1.46-1.81-1.22-5.28,1.03-8.44,1.11-1.55,2.93-4.02,3.23-4.42l7.97,6.58s-4.24,4.63-6.09,5.81Z"></path><circle id="C-59" class="cls-14" cx="1203.49" cy="944.48" r="5.19"></circle><circle id="C-60" class="cls-14" cx="1210.74" cy="935.7" r="5.19"></circle><path class="cls-14" d="m1199.56,941.08l7.15-8.66,8.1,6.5s-6.25,8.03-7.68,9.26l-7.57-7.1Z"></path><circle id="C-61" class="cls-14" cx="1194.37" cy="942.18" r="5.19"></circle><path class="cls-14" d="m1190.46,954.82c-.81.61-4.03,3.13-6.08.96-1.6-1.69-1.46-4.58.54-7.91.98-1.63,4.85-8.21,5.12-8.56l8.47,5.99s-6.3,8.2-8.05,9.52Z"></path><path class="cls-5" d="m1198.51,945.31s-2.3,3-4.51,5.66"></path><circle id="C-62" class="cls-14" cx="1204.97" cy="931.19" r="5.19"></circle><path class="cls-14" d="m1190.67,938.53l10.57-10.95,7.55,7.13s-9.11,9.38-10.29,10.62l-7.83-6.8Z"></path><path class="cls-5" d="m1208.78,934.71s-9.11,9.38-10.29,10.62"></path><circle id="C-63" class="cls-14" cx="1187.42" cy="939.03" r="5.19"></circle><path class="cls-14" d="m1181.99,953.18c-.83.59-4.12,3.02-6.11.79-1.55-1.73-1.33-4.62.76-7.89,1.02-1.61,6.19-9.59,6.47-9.94l8.15,6.39s-7.48,9.38-9.26,10.64Z"></path><path class="cls-5" d="m1191.25,942.54s-5.11,6.41-7.89,9.35"></path><circle id="C-64" class="cls-14" cx="1199.11" cy="926.85" r="5.19"></circle><path class="cls-14" d="m1183.72,935.4l11.88-12.37,7.46,7.2s-9.11,9.37-11.8,12.31l-7.54-7.14Z"></path><path class="cls-5" d="m1203.05,930.23s-9.11,9.37-11.8,12.31"></path><circle id="C-65" class="cls-14" cx="1181.4" cy="931" r="5.19"></circle><path class="cls-14" d="m1176.59,943.8c-.85.56-4.21,2.88-6.13.6-1.5-1.78-1.04-5.4,1.15-8.6,1.07-1.57,5.37-7.64,5.62-7.9l8.1,6.49s-6.92,8.21-8.74,9.41Z"></path><path class="cls-5" d="m1185.34,934.38s-2.16,2.56-4.38,5.03"></path><circle id="C-66" class="cls-14" cx="1192.28" cy="920.28" r="5.19"></circle><path class="cls-14" d="m1177.75,927.31l11.11-10.93,7.28,7.38s-9.85,9.67-11.03,10.88l-7.36-7.33Z"></path><path class="cls-5" d="m1196.13,923.76s-9.85,9.67-11.03,10.88"></path><path class="cls-14" d="m1225.91,889.46c7.1.97,12.05,7.55,11.06,14.64-.99,7.1-7.55,12.05-14.64,11.06-7.1-.99-12.08-7.55-11.06-14.64,1.02-7.07,7.57-12.03,14.64-11.06Z"></path><path class="cls-14" d="m1189.28,918.89c-.72-.98-1.31-1.68-.43-2.52,6.91-6.58,17.41-16.18,25.86-23l18.93,17.74c-3.75,6.2-13.72,20.85-18.84,27.81-.76,1.03-2.5,1.56-3.46.72,0,0-20.77-19-22.06-20.75Z"></path><line class="cls-5" x1="1193.51" y1="923.19" x2="1208.76" y2="937.39"></line><g id="C-67"><circle class="cls-14" cx="1193.08" cy="921.32" r="5.35"></circle><circle class="cls-5" cx="1193.08" cy="921.32" r="5.35"></circle></g><path class="cls-14" d="m1182.02,930.95c3.13,3.96,7.19,1.54,12.75-3.9.71-.69,1.29-1.18,1.94-1.8l-7.5-7.64c-4.72,4.78-9.38,10.58-7.2,13.34Z"></path><path class="cls-5" d="m1189.22,917.62c-4.72,4.78-9.38,10.58-7.2,13.34,3.13,3.96,7.19,1.54,12.75-3.9.71-.69,1.29-1.18,1.94-1.8"></path><g id="C-68"><circle class="cls-14" cx="1201.17" cy="914.51" r="5.35"></circle></g><path class="cls-14" d="m1204.68,918.54l-7.96,6.71-7.35-7.79c4.24-3.95,8.49-7.17,8.49-7.17l6.82,8.25Z"></path><path class="cls-5" d="m1219.2,916.12c-8.6,5.84-14.52,2.42-14.52,2.42l-7.96,6.71"></path><path class="cls-5" d="m1189.37,917.46c4.24-3.95,8.49-7.17,8.49-7.17"></path><polygon class="cls-14" points="1282.15 811.07 1215.33 892.59 1234.52 910 1305.75 831.78 1282.15 811.07"></polygon><circle id="C-69" class="cls-14" cx="1293.95" cy="821.43" r="15.7"></circle><polygon class="cls-14" points="1191.66 776.53 1286.02 835.03 1303.19 808.74 1211.65 745.89 1191.66 776.53"></polygon><circle id="C-70" class="cls-12" cx="1201.65" cy="761.21" r="18.3"></circle><path class="cls-12" d="m1243.44,808.63l28.61-38.87c-1.8-1.25-36.8-25.69-66.04-26.33l-14.35,33.1,51.78,32.1Z"></path><line class="cls-5" x1="1264.43" y1="764.78" x2="1235.68" y2="803.82"></line><ellipse id="C-71" class="cls-6" cx="1240.51" cy="765.55" rx="10.15" ry="5.4" transform="translate(-77.35 142.51) rotate(-6.38)"></ellipse><g id="Artwork_536"><rect class="cls-14" x="1154.7" y="702.73" width="29.53" height="37.46"></rect><path class="cls-9" d="m1171.38,711.05s-6.74,15.62-16.68,20.8v-12.38l16.68-8.41Z"></path><circle id="C-72" class="cls-14" cx="1169.46" cy="740.71" r="14.8"></circle><path class="cls-14" d="m1192.18,679.68c-.22,3.4-.9,7.43-1.61,10.94-1.12,5.57-4.21,10.53-8.69,14.03-8.14,6.35-21.58,16.17-28.14,17.19-14.29,2.23-20.19-4.36-24.59-13.07-2.47-4.88-3.87-12.54-4.65-19.22-.62-5.2-.86-9.8-.95-12.09-.04-.97-.05-1.52-.05-1.52,0,0,.07-4.53.95-8.88.31-1.58.74-3.14,1.3-4.44,2.14-4.91,9.05-20.75,31.12-21.13,22.08-.38,31.37,10.84,34.4,20.95,1.31,4.39,1.32,11.07.91,17.25Z"></path><path class="cls-14" d="m1124.28,682.41s-2.84,4.51-2.35,8.28c.49,3.77,5.1,7,5.1,7"></path><path class="cls-10" d="m1135.72,687.48s-4.15,4.5-10.21,1.73c-.39-.17-.75-.37-1.08-.58-.62-5.2-.86-9.8-.95-12.09,1.71-.47,3.77-.51,5.92.55,5.47,2.72,6.32,10.39,6.32,10.39Z"></path><ellipse class="cls-9" cx="1128.85" cy="683.47" rx="4.92" ry="6.61" transform="translate(-42.83 76.34) rotate(-3.8)"></ellipse><path class="cls-5" d="m1124.45,670.96s.7-1.76,5.46,1.35"></path><path class="cls-9" d="m1126.91,660.09s.26-8.75,8.81-12.11c2.74-1.08,2.16-6.43,8.74-7.72,3.9-.77,6.42,1.91,8.52,1.4,3-.72,4.74-4.87,13.16-2.91,6.03,1.4,5.19,5,9.68,4.59s12,.11,15.57,4.31c4.31,5.07,2.76,9.55,4.7,11.2,1.95,1.65,8.24,1.11,11.09,8.96,2.18,6.02-1.48,9.87-1.23,12.21.21,1.91,7.74,7.57,6.72,14.34-1.01,6.7-6.05,8.2-5.15,10.53s6.8,9.35,3.92,16.56c-1.46,3.65-9.02,1.78-10.87,3.65-1.67,1.68.67,5.1-4.03,7.34-6.17,2.94-9.2-2.88-14-2.46-3.92.34-3.81,4.14-8.96,5.6-6.56,1.85-9.29-4.88-13.78-.67-4.68,4.39-10.94,2.26-12.37-.98-4.06-9.21,3.85-11.53,2.59-15.6-1.8-5.79-1.65-9.19,1.65-14.95,3.3-5.77-10.77-11.11-11.37-16.19-.34-2.92,1.14-8.25,1.14-11.43,0-6.76-5.71-7.37-9.77-8.29-5.91-1.33-4.77-7.38-4.77-7.38Z"></path><ellipse class="cls-14" cx="1146.37" cy="692.65" rx="10.19" ry="13.94"></ellipse><line class="cls-5" x1="1151.1" y1="686.05" x2="1143.58" y2="696.34"></line><path class="cls-5" d="m1154.22,701.54c-1.87,3.09-4.69,5.05-7.85,5.05-1.58,0-3.08-.49-4.42-1.37-1.51-1-2.82-2.49-3.8-4.32"></path><path class="cls-10" d="m1146.1,714.82l-3.16-.29c-1-.09-1.68-1.06-1.43-2.03l2.46-9.45c.2-.77.93-1.29,1.73-1.21h0c.79.07,1.42.71,1.48,1.51l.7,9.74c.07,1-.77,1.83-1.77,1.74Z"></path><circle class="cls-10" cx="1150.03" cy="701.7" r="1.65"></circle></g><polygon class="cls-14" points="1149 993.38 1069.65 1021.36 1057.29 982.66 1134.58 945.98 1149 993.38"></polygon><circle id="C-73" class="cls-14" cx="1142.11" cy="969.58" r="24.77"></circle><circle id="C-74" class="cls-14" cx="1066.75" cy="1001.05" r="20.31"></circle><polygon class="cls-14" points="1145.24 995.41 1061.24 1000.23 1060.13 959.62 1144.56 945.87 1145.24 995.41"></polygon><circle id="C-75" class="cls-14" cx="1145.24" cy="970.63" r="24.77"></circle><circle id="C-76" class="cls-14" cx="1060.66" cy="979.92" r="20.31"></circle><line class="cls-5" x1="1080.72" y1="1039.99" x2="1080.96" y2="1054.3"></line><circle id="C-77" class="cls-9" cx="1168.27" cy="892.57" r="42.22"></circle><path class="cls-9" d="m1218.83,959.69l-94.58-.56c-4.91-.03-7.33-5.77-6.68-11.49.85-7.49,3.07-44.88,8.48-54.86h84.43s13.16,25.15,16.46,56.23c.61,5.7-3.23,10.71-8.11,10.68Z"></path><path class="cls-9" d="m1225.62,949.01s12.06,29.22-5.98,47.02c-5.4,5.33-12.64,8.39-20.2,9.01l-80.63,6.07,9.79,30.29h-18.32s-16.89-23.81-16.89-23.81l.33,23.81h-53.74s-1.7-41.84-1.7-41.84c-2.16-21.6,2.2-33.02,16.79-40.47,2.5-1.28,5.08-2.15,7.62-2.51l78.41-12.24,84.52,4.67Z"></path><line class="cls-4" x1="1117.47" y1="956.38" x2="1117.47" y2="945.67"></line><circle id="C-78" class="cls-1" cx="1168.37" cy="892.53" r="42.22"></circle><circle id="C-79" class="cls-1" cx="1168.4" cy="892.59" r="42.22"></circle><polygon class="cls-14" points="1126.19 892.94 1125.9 833.51 1216.91 835.28 1210.62 892.52 1126.19 892.94"></polygon><path class="cls-12" d="m1102.27,856.26l112.57-2.55,8.75-58.95c.8-14.31-2.45-28.52-9.18-41.17-.1-.19-.18-.35-.24-.46-2.03-4.31-6.76-7.85-11.41-9.35-14.66-4.72-70.68-5.52-87.18-.22-4.7,1.51-14.65,5.52-16.14,10.13-.68,2.11-1.05,4.36-1.13,6.56l3.94,96.01Z"></path><path class="cls-14" d="m1099.46,753.69l114.72-.56c0-1.39-2.27-7.85-6.92-9.35-6.46-2.08-13.09-3.44-18.48-4.32-5.97-.96-12-1.42-18.05-1.39l-19.9.1s-22.51.11-39.01,5.41c-4.7,1.51-10.87,5.5-12.36,10.11Z"></path><g id="C-80"><ellipse class="cls-6" cx="1202.97" cy="831.01" rx="5.4" ry="10.15" transform="translate(-255.82 732.8) rotate(-30.79)"></ellipse><ellipse class="cls-6" cx="1183.67" cy="796.99" rx="10.15" ry="5.4" transform="translate(-242.99 766.79) rotate(-32.74)"></ellipse><ellipse class="cls-6" cx="1146.06" cy="774.21" rx="5.4" ry="10.15" transform="translate(-202.87 1079.56) rotate(-46.8)"></ellipse><ellipse class="cls-6" cx="1157.3" cy="834.85" rx="10.15" ry="5.4" transform="translate(-257.54 1020.73) rotate(-43.29)"></ellipse><ellipse class="cls-6" cx="1132.46" cy="815.29" rx="5.4" ry="10.15" transform="translate(-226.58 1131.78) rotate(-48.86)"></ellipse><ellipse class="cls-6" cx="1204.92" cy="768.98" rx="10.15" ry="5.4" transform="translate(218.15 1803.12) rotate(-78.89)"></ellipse></g><line class="cls-5" x1="1219.73" y1="821.36" x2="1223.87" y2="778.48"></line><polygon class="cls-14" points="1121.8 859.87 1027.91 810.16 1015.4 832.86 1106.35 887.21 1121.8 859.87"></polygon><circle id="C-81" class="cls-14" cx="1114.07" cy="873.54" r="15.7"></circle><polygon class="cls-14" points="1095.61 762.57 1098.37 873.56 1129.78 873.51 1132.2 762.51 1095.61 762.57"></polygon><circle id="C-82" class="cls-12" cx="1113.91" cy="762.53" r="18.3"></circle><path class="cls-12" d="m1130.87,823.39l-52.31-.2c.09-2.19,1.61-44.84,18.77-68.52l34.87,7.85-1.33,60.88Z"></path><line class="cls-5" x1="1130.87" y1="823.39" x2="1131.93" y2="774.7"></line><line class="cls-5" x1="1079.23" y1="813.77" x2="1131.07" y2="814.33"></line><ellipse id="C-83" class="cls-6" cx="1100.65" cy="772.05" rx="10.15" ry="5.4" transform="translate(-187.44 1157.16) rotate(-51.69)"></ellipse><ellipse id="C-84" class="cls-6" cx="1116.92" cy="794.56" rx="10.15" ry="5.4" transform="translate(283.69 1882.93) rotate(-87.99)"></ellipse><g id="Artwork_739"><circle id="C-85" class="cls-14" cx="1022.31" cy="821.87" r="12.98"></circle><path class="cls-14" d="m982.77,794.64c-.42,4.84,4.01,5.82,11.49,5.7.96-.02,1.87-.02,2.73-.03l-.42-10.28c-6.46.22-13.51,1.25-13.8,4.61Z"></path><circle class="cls-14" cx="996.86" cy="795.21" r="5.15"></circle><circle class="cls-14" cx="1005.76" cy="800.12" r="5.15"></circle><path class="cls-14" d="m999.04,790.5l-4.46,9.27c5.23,2.76,8.41,4.7,8.41,4.7l5.39-8.77s-4.34-2.76-9.34-5.2Z"></path><path class="cls-14" d="m985.27,797.47c.17.03.34.05.53.08,5.42.84,11.13,1.78,11.35,2.01.27.29,4.63-1.95,7.62-3.53,1.65-.87,3.68-.53,4.95.85l15.47,12.55-4.13,25.36s-25.62-1.33-29.25-2.5c-9.88-3.2-10.12-6.78-9.68-8.28-3.17-.33-6.27-1.61-5.44-5.36.25-1.11.77-1.9,1.47-2.47-3.5-.43-6.52-1.9-5.48-6.42.41-1.78,1.61-2.78,3.21-3.26-2.24-.68-3.76-2.26-3.23-5.61.78-4.85,7.63-4.43,12.62-3.42Z"></path><line class="cls-5" x1="982.65" y1="796.86" x2="997" y2="798.72"></line><line class="cls-5" x1="974.89" y1="806.1" x2="986.64" y2="807.72"></line><line class="cls-5" x1="977.35" y1="816.06" x2="984.81" y2="817.76"></line><line class="cls-5" x1="981.54" y1="823.96" x2="987.17" y2="825.24"></line></g><g id="Poof-2"><path class="cls-8" d="m1384.89,798.22c33.09,25.31,63.37,69.76,80.94,130.65,36.99,128.15-62.14,206.21-62.14,206.21,0,0-4.17,3.49-11.98,8.71-41.31,27.6-93.86,42.56-148.03,42.56h-200.53c-40.02,0-78.28-13.81-103.57-38.24-24.55-23.72-40.16-60.22-14.11-114.09,27.87-57.64,46.62-134,104.69-168.82,40.9-24.53,124.8-68.06,146.81-85.16,15.16-11.77,31.76-22.41,43.56-36.36,19.76-23.36,87.38-4.32,164.35,54.56Z"></path></g></svg>